<?xml version="1.0" encoding="UTF-8" standalone="no"?>
<svg
   xmlns:dc="http://purl.org/dc/elements/1.1/"
   xmlns:cc="http://creativecommons.org/ns#"
   xmlns:rdf="http://www.w3.org/1999/02/22-rdf-syntax-ns#"
   xmlns:svg="http://www.w3.org/2000/svg"
   xmlns="http://www.w3.org/2000/svg"
   xmlns:sodipodi="http://sodipodi.sourceforge.net/DTD/sodipodi-0.dtd"
   xmlns:inkscape="http://www.inkscape.org/namespaces/inkscape"
   width="240"
   height="240"
   viewBox="0 0 63.5 63.5"
   version="1.1"
   id="svg820"
   inkscape:version="1.0.1 (0767f8302a, 2020-10-17)"
   sodipodi:docname="logo.svg"
   inkscape:export-filename="/home/beemelmanns/Documents/github/TillBeemelmanns.github.io/assets/favicon500.png"
   inkscape:export-xdpi="103.09108"
   inkscape:export-ydpi="103.09108">
  <defs
     id="defs814" />
  <sodipodi:namedview
     id="base"
     pagecolor="#ffffff"
     bordercolor="#666666"
     borderopacity="1.0"
     inkscape:pageopacity="0.0"
     inkscape:pageshadow="2"
     inkscape:zoom="0.7"
     inkscape:cx="94.079675"
     inkscape:cy="234.43651"
     inkscape:document-units="mm"
     inkscape:current-layer="layer1"
     inkscape:document-rotation="0"
     showgrid="false"
     units="px"
     inkscape:window-width="1403"
     inkscape:window-height="1018"
     inkscape:window-x="510"
     inkscape:window-y="25"
     inkscape:window-maximized="0" />
  <metadata
     id="metadata817">
    <rdf:RDF>
      <cc:Work
         rdf:about="">
        <dc:format>image/svg+xml</dc:format>
        <dc:type
           rdf:resource="http://purl.org/dc/dcmitype/StillImage" />
        <dc:title></dc:title>
      </cc:Work>
    </rdf:RDF>
  </metadata>
  <g
     inkscape:label="Layer 1"
     inkscape:groupmode="layer"
     id="layer1">
    <path
       d="m 35.747864,30.093152 c -0.401857,0.01722 -0.803686,0.03702 -1.205422,0.04773 -0.401827,0.01331 -0.803685,0.02565 -1.205511,0.03344 -0.379791,0.0081 -0.759706,0.01785 -1.139498,0.02241 -0.385104,0.424384 -0.768427,0.85104 -1.15812,1.270553 -0.403396,0.436074 -0.803111,0.875719 -1.210736,1.306921 -0.406988,0.431851 -0.809661,0.868898 -1.220786,1.296205 -0.409614,0.429254 -0.81772,0.859806 -1.232163,1.283865 l -0.04256,0.04384 -0.05313,-9.92e-4 c -0.628458,-0.01267 -1.257218,-0.03279 -1.885678,-0.05488 -0.628762,-0.03053 -1.257221,-0.04903 -1.88568,-0.09059 0.628459,-0.04188 1.256918,-0.0604 1.88568,-0.09092 0.609139,-0.02143 1.217979,-0.04059 1.827119,-0.05325 0.38245,-0.431526 0.770029,-0.85721 1.156705,-1.28419 0.397237,-0.442243 0.803231,-0.875393 1.204997,-1.313089 0.400801,-0.43867 0.809602,-0.868574 1.214869,-1.3027 0.404424,-0.434449 0.81594,-0.861753 1.224982,-1.291658 l 0.04659,-0.04871 0.062,3.13e-4 c 0.401858,0.0042 0.803564,0.01526 1.205422,0.02404 0.401827,0.0079 0.803684,0.02013 1.205511,0.03344 0.401737,0.01036 0.803565,0.03019 1.205422,0.04741 0.337351,0.01428 0.674793,0.02988 1.012145,0.04967 v -0.889029 c -0.0764,0.0049 -0.165083,0.01003 -0.267896,0.0159 -0.359748,0.01624 -0.873593,0.05032 -1.49028,0.07144 -0.304571,0.01202 -0.634707,0.02306 -0.983257,0.03279 -0.05826,0.235082 -0.255881,0.409448 -0.492534,0.409448 -0.228865,0 -0.420814,-0.163651 -0.485894,-0.387045 -0.04893,9.92e-4 -0.09599,0.0019 -0.145282,0.003 -0.385436,0.0049 -0.783642,0.01558 -1.188306,0.01623 -0.404665,0.0023 -0.815819,0.0045 -1.226974,0.0066 -0.411064,-0.0019 -0.82225,-0.0042 -1.227036,-0.0061 -0.404482,0 -0.802929,-0.01136 -1.188095,-0.01624 -0.770934,-0.01299 -1.49025,-0.03344 -2.106937,-0.05779 -0.616989,-0.02111 -1.130744,-0.05552 -1.490552,-0.07176 -0.359508,-0.02013 -0.56507,-0.03702 -0.56507,-0.03702 0,0 0.205562,-0.01656 0.56507,-0.03669 0.359808,-0.01624 0.873563,-0.05065 1.490552,-0.07176 0.616687,-0.02435 1.336003,-0.04481 2.106937,-0.05812 0.385166,-0.0045 0.783613,-0.0159 1.188095,-0.0159 0.404786,-0.0023 0.815972,-0.0042 1.227036,-0.0066 0.411155,0.0023 0.822309,0.0045 1.226974,0.0066 0.404664,9.92e-4 0.80287,0.01136 1.188306,0.01656 0.0493,6.54e-4 0.09636,0.0019 0.145282,0.003 0.06508,-0.223719 0.257029,-0.387368 0.485894,-0.387368 0.236653,0 0.434276,0.174689 0.492534,0.409771 0.34855,0.0094 0.678686,0.02045 0.983257,0.03247 0.616687,0.02143 1.130532,0.05552 1.49028,0.07143 0.102816,0.0059 0.191497,0.01136 0.267896,0.01624 V 28.22755 c -0.185247,0.01299 -0.370586,0.02695 -0.555954,0.03669 -0.284406,0.01494 -0.568811,0.03571 -0.853188,0.04611 -0.568935,0.02598 -1.137868,0.04189 -1.70665,0.05779 -0.568933,0.0094 -1.137865,0.0237 -1.706679,0.02403 -0.568903,0.0058 -1.137837,0.0049 -1.70665,-3.13e-4 l -0.07156,-6.61e-4 -0.04929,-0.05326 c -0.294404,-0.317264 -0.583097,-0.64099 -0.872875,-0.963094 -0.291287,-0.320804 -0.575633,-0.649077 -0.862696,-0.974427 -0.284346,-0.327947 -0.569902,-0.654921 -0.84821,-0.989362 -0.278007,-0.335091 -0.560842,-0.664987 -0.831909,-1.007223 0.318456,0.291258 0.624838,0.595828 0.93635,0.894551 0.311212,0.299374 0.614877,0.606866 0.92005,0.912734 0.302156,0.308789 0.607329,0.614657 0.90556,0.927995 0.282534,0.293853 0.565312,0.587059 0.844044,0.885134 0.545691,-0.0049 1.091381,-0.0061 1.637192,-6.53e-4 0.568815,3.11e-4 1.137746,0.01494 1.70668,0.02403 0.568783,0.01624 1.137716,0.03214 1.706649,0.05812 0.284376,0.01036 0.568782,0.03084 0.853188,0.04578 0.185369,0.01003 0.370707,0.0237 0.555954,0.03669 v -0.892915 c -0.444871,0.0393 -0.889742,0.06819 -1.334644,0.09058 -0.254554,0.01266 -0.509258,0.02565 -0.76393,0.03312 -0.254705,0.0081 -0.509259,0.02046 -0.763962,0.02435 l -0.06001,6.54e-4 -0.04764,-0.04871 c -0.419303,-0.429576 -0.832692,-0.865001 -1.243394,-1.303995 -0.207284,-0.217225 -0.407832,-0.441594 -0.611827,-0.66239 -0.203751,-0.22112 -0.406929,-0.44289 -0.606423,-0.668557 -0.402432,-0.447438 -0.79955,-0.900722 -1.191023,-1.360172 -0.391988,-0.458477 -0.777454,-0.924748 -1.150544,-1.403357 0.444931,0.401331 0.878151,0.815974 1.30464,1.237759 0.426973,0.421138 0.848388,0.84812 1.264493,1.280945 0.20976,0.214627 0.415744,0.433475 0.621397,0.652323 0.205169,0.219498 0.413991,0.435424 0.615842,0.658169 0.393827,0.426655 0.784485,0.856235 1.170285,1.291334 0.232758,0.0049 0.465517,0.01526 0.698157,0.0224 0.254673,0.0074 0.509377,0.02079 0.76393,0.03344 0.444903,0.02241 0.889775,0.0513 1.334646,0.09058 v -0.75245 c -0.178403,-0.164298 -0.354806,-0.330545 -0.529308,-0.498741 l -0.02666,-0.02597 -0.0029,-0.05098 c -0.0178,-0.315285 -0.0288,-0.630894 -0.04011,-0.946502 -0.01282,-0.315609 -0.01555,-0.630895 -0.02381,-0.946503 -0.0069,-0.315609 -0.0059,-0.630894 -0.0093,-0.946502 -0.0043,-0.291257 0.0012,-0.582189 0.0027,-0.873121 -0.190213,-0.207158 -0.376637,-0.418538 -0.563635,-0.628944 -0.205049,-0.227941 -0.403035,-0.463674 -0.603949,-0.696158 -0.397118,-0.469842 -0.790492,-0.94423 -1.163433,-1.440048 0.46102,0.401005 0.901906,0.824089 1.338871,1.251397 0.216157,0.216251 0.435212,0.428928 0.647235,0.649726 0.213168,0.219171 0.428118,0.436722 0.636819,0.660765 l 0.04989,0.05326 2.49e-4,0.07662 c 7.32e-4,0.315284 0.0079,0.630893 0.0032,0.946502 -0.0032,0.315608 -0.0022,0.630893 -0.0094,0.946502 -0.0082,0.315609 -0.01097,0.630894 -0.02381,0.946503 -0.01068,0.302946 -0.02167,0.605567 -0.03832,0.908188 0.144798,0.174376 0.288059,0.349715 0.429537,0.527652 h 1.026664 c -0.01025,-0.132485 -0.02369,-0.264638 -0.03184,-0.396792 -0.02146,-0.299374 -0.03324,-0.599071 -0.04905,-0.898771 l -0.0025,-0.04838 0.03809,-0.04384 c 0.186556,-0.215926 0.370143,-0.434774 0.559133,-0.647777 0.07784,-0.08735 0.155909,-0.174365 0.233243,-0.262034 -0.03525,-0.07468 -0.05696,-0.157806 -0.05696,-0.247099 0,-0.238004 0.141751,-0.438995 0.33853,-0.515624 -0.0019,-0.273399 -0.003,-0.546472 7.91e-4,-0.819869 l 0.0064,-0.667584 0.01485,-0.667585 0.02264,-0.667909 c 0.0068,-0.222421 0.01979,-0.445164 0.03088,-0.667584 0.02381,-0.445164 0.05237,-0.89033 0.09765,-1.335493 0.04529,0.445163 0.0738,0.890329 0.09762,1.335493 0.01097,0.22242 0.02407,0.445163 0.03088,0.667584 l 0.02263,0.667909 0.01488,0.667585 0.0064,0.667584 c 0.0037,0.273397 0.0027,0.54647 7.31e-4,0.819869 0.196778,0.07663 0.338529,0.27762 0.338529,0.515624 0,0.303272 -0.22959,0.550368 -0.511612,0.550368 -0.08301,0 -0.160374,-0.02338 -0.22983,-0.06137 -0.08148,0.08312 -0.162368,0.16722 -0.243477,0.250994 -0.18736,0.192221 -0.379549,0.379249 -0.569627,0.568875 -0.01415,0.279567 -0.02597,0.559458 -0.046,0.839025 -0.0081,0.132154 -0.02157,0.264307 -0.03194,0.396785 h 2.398763 c -0.03158,-0.453607 -0.05765,-0.906888 -0.07616,-1.360171 -0.01461,-0.310413 -0.0211,-0.620827 -0.03207,-0.931241 -0.0095,-0.310089 -0.01286,-0.620504 -0.01971,-0.930917 l -0.0014,-0.06851 0.04942,-0.05617 c 0.174326,-0.197703 0.354139,-0.389926 0.531601,-0.584422 0.178826,-0.193196 0.354294,-0.390289 0.535979,-0.58024 l 0.541279,-0.574401 0.547473,-0.567575 c 0.365997,-0.377628 0.73622,-0.750383 1.112723,-1.116645 0.375172,-0.367236 0.755689,-0.729277 1.147616,-1.078656 -0.324946,0.421461 -0.661241,0.830909 -1.002939,1.234512 -0.34043,0.404901 -0.686958,0.803309 -1.037742,1.196846 l -0.527909,0.589007 -0.533919,0.582188 c -0.176735,0.19547 -0.359749,0.384121 -0.539323,0.576344 -0.165535,0.174689 -0.329683,0.351002 -0.497242,0.523417 -0.0057,0.285087 -0.0094,0.570176 -0.01814,0.855263 -0.01098,0.310414 -0.01744,0.620828 -0.03196,0.93124 -0.01863,0.453281 -0.04455,0.906565 -0.07616,1.360171 h 0.924645 c 0.175471,-0.218523 0.421663,-0.519845 0.721887,-0.873444 0.310576,-0.368536 0.678324,-0.792594 1.077707,-1.24133 0.200914,-0.22307 0.404907,-0.457504 0.618679,-0.688366 0.212836,-0.23216 0.429175,-0.467894 0.645453,-0.703627 0.219055,-0.23281 0.438261,-0.465296 0.653936,-0.694534 0.132393,-0.142219 0.265419,-0.279568 0.397359,-0.415292 -0.029,-0.06884 -0.046,-0.144818 -0.046,-0.225018 0,-0.303595 0.229589,-0.550368 0.511611,-0.550368 0.0835,0 0.16131,0.0237 0.231008,0.06202 0.248302,-0.250993 0.485076,-0.486727 0.699905,-0.696157 0.682703,-0.670832 1.160024,-1.094242 1.160024,-1.094242 0,0 -0.393587,0.513352 -1.017216,1.247825 -0.192553,0.228264 -0.408922,0.479908 -0.639327,0.743564 0.04811,0.0841 0.07725,0.181832 0.07725,0.28736 0,0.30327 -0.22959,0.550043 -0.511642,0.550043 -0.08914,0 -0.171664,-0.02662 -0.244772,-0.06982 -0.123461,0.138973 -0.248549,0.278919 -0.378012,0.41854 -0.213079,0.231836 -0.429326,0.467569 -0.645575,0.703302 -0.219206,0.232809 -0.438412,0.465295 -0.654177,0.694209 -0.21483,0.230213 -0.432737,0.449386 -0.64014,0.665636 -0.417041,0.42958 -0.811353,0.825065 -1.153896,1.159183 -0.341215,0.335414 -0.631055,0.608812 -0.835621,0.798762 v 0.755578 c 0.178033,-0.01202 0.356096,-0.025 0.53413,-0.03409 0.286067,-0.01462 0.572102,-0.03312 0.85817,-0.04481 0.551003,-0.02402 1.102006,-0.04058 1.65301,-0.05552 l 0.527062,-0.586409 c -0.03091,-0.07079 -0.04954,-0.149037 -0.04954,-0.232161 0,-0.303595 0.229559,-0.550367 0.511611,-0.550367 0.07371,0 0.143381,0.01754 0.206709,0.04773 l 0.325243,-0.354905 c 0.260951,-0.285737 0.524591,-0.568876 0.79013,-0.849741 0.265662,-0.280541 0.52743,-0.565628 0.796382,-0.842924 l 0.803805,-0.834805 0.81265,-0.825388 c 0.272723,-0.273073 0.545568,-0.546146 0.823847,-0.813376 0.27695,-0.268526 0.55206,-0.539327 0.83538,-0.801036 -0.243234,0.304894 -0.49498,0.600697 -0.744612,0.898772 -0.248302,0.299374 -0.502039,0.592904 -0.75614,0.886109 l -0.767251,0.874094 -0.776096,0.864677 c -0.257753,0.28931 -0.52272,0.570824 -0.783642,0.856885 -0.261193,0.285412 -0.524138,0.5692 -0.78989,0.849741 l -0.323798,0.34321 c 0.03643,0.07565 0.05895,0.160401 0.05895,0.251317 0,0.303271 -0.229438,0.550368 -0.51161,0.550368 -0.08832,0 -0.170277,-0.02662 -0.242782,-0.06916 l -0.580011,0.602969 -0.04561,0.04773 -0.05744,-0.0016 c -0.572099,-0.01525 -1.144201,-0.03214 -1.716305,-0.05714 -0.286065,-0.01201 -0.5721,-0.03019 -0.858169,-0.04514 -0.178033,-0.0087 -0.356097,-0.02208 -0.534129,-0.03378 v 0.882861 c 0.413267,-0.02271 0.826686,-0.04058 1.240075,-0.06136 l 0.843287,-0.03084 0.843318,-0.02403 c 0.562203,-0.01558 1.124405,-0.025 1.686607,-0.03215 0.538144,-0.01003 1.076288,-0.0097 1.614313,-0.01299 0.435562,-0.47536 0.879739,-0.94163 1.319299,-1.41277 0.459509,-0.486077 0.921375,-0.96923 1.385717,-1.450112 0.464673,-0.480233 0.932305,-0.957543 1.403738,-1.430632 L 52.4138,23.024436 c 0.236774,-0.235407 0.475902,-0.468217 0.71832,-0.697781 -0.213319,0.260735 -0.429779,0.518222 -0.648623,0.772788 l -0.654176,0.766618 c -0.439831,0.506858 -0.883404,1.009818 -1.329936,1.509858 -0.446894,0.499389 -0.896235,0.996181 -1.347958,1.490376 -0.454802,0.491271 -0.904262,0.987739 -1.363895,1.473491 l -0.05221,0.0552 -0.07052,-6.54e-4 c -0.562203,-0.0037 -1.124404,-0.0026 -1.686606,-0.01331 -0.562203,-0.0071 -1.124404,-0.01656 -1.686607,-0.03215 l -0.843318,-0.0237 -0.843288,-0.03084 c -0.413389,-0.02111 -0.826807,-0.03896 -1.240075,-0.06138 v 0.904941 c 0.452056,-0.0263 0.904142,-0.04514 1.356229,-0.06819 l 0.840208,-0.03053 0.84015,-0.02404 c 0.560179,-0.01558 1.120268,-0.025 1.680327,-0.03215 0.56009,-0.01068 1.120299,-0.01003 1.680358,-0.01365 l 0.07052,-3.12e-4 0.05214,0.05519 c 0.460085,0.486077 0.910149,0.98287 1.365193,1.474465 0.452298,0.49452 0.901788,0.991962 1.349255,1.491676 0.446773,0.500363 0.8908,1.003649 1.330962,1.511157 l 0.65478,0.767285 c 0.219087,0.254889 0.435665,0.512377 0.649107,0.773436 -0.242661,-0.229563 -0.481909,-0.462698 -0.718925,-0.698431 l -0.71325,-0.704294 C 51.330225,33.166091 50.862233,32.688457 50.397076,32.2079 49.932494,31.72637 49.470053,31.24289 49.010421,30.756489 48.570258,30.285024 48.12596,29.818104 47.690054,29.342093 c -0.536153,-0.003 -1.072183,-0.003 -1.608215,-0.01299 -0.56006,-0.0072 -1.120148,-0.01656 -1.680327,-0.03215 l -0.84015,-0.02403 -0.840209,-0.03084 c -0.452085,-0.02273 -0.904171,-0.04156 -1.356227,-0.06786 v 0.830259 c 0.442999,-0.02921 0.88597,-0.04836 1.328969,-0.07241 0.255761,-0.01462 0.5114,-0.02013 0.767131,-0.03053 l 0.767011,-0.02401 c 0.511399,-0.01494 1.022649,-0.02596 1.534049,-0.03215 0.51137,-0.01036 1.022769,-0.01202 1.534141,-0.01428 l 0.07027,-6.54e-4 0.05189,0.05488 c 0.436752,0.4614 0.865354,0.931567 1.296431,1.399136 0.216248,0.23281 0.428723,0.469841 0.641922,0.705898 l 0.6386,0.709788 c 0.423167,0.476015 0.844465,0.953975 1.261174,1.437129 l 0.619735,0.72996 c 0.207193,0.242876 0.412242,0.487699 0.613729,0.73642 C 52.258774,35.387092 52.030965,35.166295 51.8053,34.94355 L 51.12658,34.2769 c -0.448886,-0.448411 -0.893154,-0.901367 -1.335701,-1.356598 l -0.659822,-0.687066 c -0.219538,-0.229239 -0.439922,-0.457829 -0.656531,-0.690314 -0.417765,-0.445814 -0.837523,-0.889679 -1.25046,-1.340689 -0.487311,-0.0023 -0.974654,-0.0042 -1.461965,-0.01396 -0.5114,-0.0061 -1.02265,-0.01722 -1.534049,-0.03247 l -0.767011,-0.0237 c -0.255731,-0.01036 -0.51137,-0.01624 -0.767131,-0.03084 -0.442999,-0.02402 -0.885971,-0.04286 -1.328969,-0.07208 v 0.66109 c 0.440857,-0.03572 0.881864,-0.06396 1.322842,-0.08442 0.274505,-0.01428 0.549011,-0.02533 0.823487,-0.03377 0.274384,-0.0097 0.54889,-0.01884 0.823395,-0.02338 l 0.06001,-6.54e-4 0.04845,0.04806 c 0.251746,0.251643 0.50008,0.507183 0.74745,0.763697 0.06402,-0.03118 0.134294,-0.04935 0.208822,-0.04935 0.282174,0 0.511612,0.247096 0.511612,0.550368 0,0.07501 -0.01412,0.146114 -0.03948,0.21138 l 0.453355,0.483803 c 0.207192,0.219822 0.411396,0.442891 0.613728,0.667909 0.202936,0.224693 0.407169,0.447762 0.60597,0.676676 0.199736,0.228265 0.400892,0.454582 0.596251,0.68739 0.197383,0.230539 0.392199,0.463674 0.583543,0.700706 0.09647,0.117864 0.190078,0.238329 0.283593,0.359117 0.09149,0.121762 0.189593,0.240602 0.262582,0.377628 -0.09068,-0.121439 -0.208098,-0.218201 -0.31269,-0.326326 L 48.6343,35.383482 47.989209,34.750641 47.349068,34.112605 c -0.214014,-0.21203 -0.42341,-0.429255 -0.634495,-0.644531 -0.211632,-0.214627 -0.42175,-0.431202 -0.629396,-0.650052 l -0.450304,-0.471465 c -0.07088,0.03993 -0.150112,0.06462 -0.235478,0.06462 -0.282051,0 -0.51161,-0.246771 -0.51161,-0.550367 0,-0.08929 0.02182,-0.17274 0.05717,-0.247421 -0.226842,-0.242551 -0.45287,-0.486402 -0.676694,-0.732524 -0.25232,-0.0045 -0.50464,-0.01234 -0.756989,-0.02144 -0.274475,-0.0081 -0.54898,-0.01916 -0.823486,-0.03344 -0.440977,-0.02046 -0.881985,-0.04903 -1.322843,-0.08475 v 0.479257 c 0.0085,0.0059 0.01664,0.01104 0.02535,0.01722 0.176282,0.118515 0.386976,0.302621 0.578472,0.507831 0.190772,0.205537 0.362225,0.431852 0.47234,0.621803 0.113678,0.185729 0.167318,0.333468 0.167318,0.333468 0,0 -0.137373,-0.05779 -0.310094,-0.179885 -0.176523,-0.118515 -0.387007,-0.302946 -0.578139,-0.508156 -0.190652,-0.205861 -0.361742,-0.432501 -0.47198,-0.622127 -0.0026,-0.0042 -0.0047,-0.0081 -0.0073,-0.01234 h -0.17737 c 0.02255,0.288009 0.04151,0.575694 0.0579,0.863703 0.01947,0.384122 0.03915,0.768242 0.05014,1.152689 0.01437,0.38412 0.02345,0.768241 0.02983,1.152362 0.0093,0.358469 0.0098,0.716613 0.01225,1.074759 0.278399,0.293529 0.549344,0.59485 0.823849,0.892276 0.288783,0.318207 0.574337,0.63966 0.85829,0.963062 0.282868,0.324376 0.563259,0.651675 0.839636,0.982869 0.274959,0.333143 0.549947,0.666285 0.812529,1.012415 -0.321775,-0.282489 -0.631418,-0.578291 -0.940937,-0.874092 -0.308102,-0.297427 -0.612311,-0.599073 -0.913801,-0.903317 -0.300678,-0.305219 -0.599694,-0.61271 -0.895419,-0.923124 -0.293373,-0.313337 -0.591332,-0.621478 -0.879511,-0.940334 l -0.0514,-0.05683 5.54e-4,-0.07501 c 0.0031,-0.38412 0.0029,-0.768567 0.01274,-1.152687 0.0065,-0.384121 0.01545,-0.768243 0.02994,-1.152362 0.01098,-0.384446 0.03066,-0.768567 0.05014,-1.152687 0.01626,-0.288009 0.03535,-0.575695 0.0579,-0.863703 h -0.618697 c 0.02572,0.31853 0.04625,0.637062 0.06535,0.955592 0.02097,0.414968 0.03912,0.829935 0.0514,1.244578 0.01485,0.414967 0.01944,0.829935 0.02841,1.244902 0.0016,0.388991 0.0069,0.778308 0.0059,1.167298 0.231824,0.254242 0.466576,0.505234 0.694505,0.763371 0.245497,0.276321 0.492292,0.551018 0.732599,0.832858 0.243021,0.278918 0.48049,0.56368 0.717595,0.848767 0.234873,0.287685 0.469533,0.575694 0.694505,0.874094 -0.277345,-0.241902 -0.544997,-0.49452 -0.81229,-0.747136 -0.265177,-0.255214 -0.529903,-0.510429 -0.789196,-0.772138 -0.261857,-0.258462 -0.517496,-0.523743 -0.774193,-0.787724 -0.257633,-0.263331 -0.507386,-0.535105 -0.761365,-0.80201 l -0.05068,-0.05326 -4.75e-4,-0.07955 c -0.0022,-0.414967 0.0044,-0.829934 0.0061,-1.244577 0.009,-0.414967 0.01356,-0.829935 0.0284,-1.244902 0.01229,-0.414642 0.03031,-0.829611 0.05144,-1.244577 0.01908,-0.318531 0.03948,-0.637063 0.06532,-0.955594 h -1.69699 c 0.02654,0.535106 0.04422,1.070214 0.06662,1.605319 l 0.02852,0.947152 0.02219,0.947151 0.0013,0.05488 -0.03963,0.04481 c -0.421901,0.47666 -0.848269,0.948775 -1.276024,1.419265 -0.408349,0.454907 -0.824937,0.90072 -1.238083,1.350431 0.0035,0.690636 -0.0038,1.380951 -0.0051,2.071589 l -0.01156,1.074434 -0.01578,1.074434 c -0.01261,0.71629 -0.03007,1.432577 -0.05189,2.148868 l -0.04101,1.074109 c -0.01241,0.358145 -0.02844,0.716288 -0.04872,1.074434 -0.02028,-0.358146 -0.0362,-0.716289 -0.04868,-1.074434 l -0.04089,-1.074109 c -0.02182,-0.716291 -0.0394,-1.432578 -0.05189,-2.148868 l -0.01582,-1.074434 -0.01165,-1.074434 c -0.0012,-0.71629 -0.0095,-1.432579 -0.005,-2.148868 l 4.75e-4,-0.07858 0.05046,-0.05357 c 0.435474,-0.462322 0.866551,-0.929243 1.306593,-1.386745 0.425311,-0.447113 0.852042,-0.892927 1.282756,-1.334195 l 0.02088,-0.886108 0.02842,-0.947153 c 0.0224,-0.535104 0.04022,-1.070211 0.06674,-1.605318 h -0.698853 c 0.02003,0.405226 0.03643,0.810453 0.05542,1.215679 0.01319,0.281191 0.01875,0.562055 0.02853,0.843247 l 0.02229,0.843248 0.0014,0.05422 -0.03973,0.04514 c -0.376955,0.428603 -0.758529,0.852337 -1.141399,1.274773 -0.380124,0.425358 -0.769606,0.840649 -1.154469,1.260813 -0.384622,0.420488 -0.777847,0.831558 -1.166362,1.247823 -0.376018,0.400357 -0.757834,0.794219 -1.137021,1.191002 -0.01451,0.662065 -0.02913,1.323804 -0.05226,1.98587 -0.01014,0.342235 -0.02839,0.684793 -0.04232,1.027027 -0.01367,0.34256 -0.02982,0.684793 -0.05165,1.027353 -0.02182,-0.34256 -0.03798,-0.684793 -0.05165,-1.027353 -0.01392,-0.342234 -0.03217,-0.684792 -0.04244,-1.027027 -0.02381,-0.684794 -0.0387,-1.369588 -0.05379,-2.05438 l -0.0013,-0.06331 0.04458,-0.04935 c 0.382548,-0.422431 0.76222,-0.848438 1.147897,-1.267625 0.387006,-0.418216 0.769153,-0.840976 1.160144,-1.254969 0.390509,-0.413994 0.776669,-0.832857 1.171916,-1.241654 0.380603,-0.39906 0.762658,-0.796494 1.148578,-1.190031 l 0.02061,-0.781554 c 0.0098,-0.281191 0.01533,-0.562057 0.02856,-0.843248 0.01899,-0.405226 0.03537,-0.810452 0.05553,-1.21568 h -0.71503 c 0.01849,0.357173 0.03326,0.714343 0.04788,1.071839 0.02041,0.453606 0.0349,0.906888 0.04706,1.360494 l 0.0013,0.04578 -0.03339,0.03766 -0.590485,0.669534 -0.593566,0.666286 c -0.399956,0.439644 -0.794749,0.884484 -1.198811,1.319582 -0.403487,0.436073 -0.802507,0.876368 -1.210492,1.307245 -0.316221,0.33639 -0.631658,0.673429 -0.949298,1.008195 0.01546,0.05228 0.02606,0.106829 0.02606,0.164622 0,0.303272 -0.229561,0.550369 -0.511613,0.550369 -0.228383,0 -0.419999,-0.163001 -0.485562,-0.385744 -0.225906,-0.003 -0.451843,-0.0068 -0.67775,-0.0133 l -1.262471,-0.03409 c -0.420906,-0.01299 -0.84169,-0.0289 -1.262475,-0.05065 -0.420782,-0.01981 -0.841567,-0.03734 -1.262352,-0.06656 0.420785,-0.02922 0.84157,-0.04709 1.262352,-0.06688 0.420785,-0.02175 0.841569,-0.03767 1.262475,-0.05032 l 1.262462,-0.03409 c 0.225908,-0.0068 0.451845,-0.01036 0.677752,-0.01364 0.06556,-0.222421 0.257178,-0.38542 0.48556,-0.38542 0.106581,0 0.205653,0.03539 0.287697,0.09578 0.2995,-0.328599 0.60099,-0.654922 0.901666,-0.98222 0.40068,-0.43867 0.810054,-0.86825 1.215202,-1.302051 0.404574,-0.434772 0.818325,-0.859482 1.227004,-1.289708 l 0.619255,-0.6384 0.592055,-0.604268 c 0.01189,-0.436073 0.0258,-0.872145 0.04537,-1.308218 0.01464,-0.357495 0.02936,-0.714667 0.04776,-1.071837 h -0.191466 c -0.03574,0.1026 -0.101425,0.212354 -0.185368,0.303594 -0.0895,0.09612 -0.198317,0.171117 -0.298564,0.20716 -0.09656,0.04026 -0.182983,0.04351 -0.182983,0.04351 0,0 0.0029,-0.09318 0.04032,-0.197093 0.03372,-0.107476 0.103421,-0.224694 0.192553,-0.320804 0.07498,-0.07987 0.163182,-0.143843 0.248547,-0.184432 v -0.217237 c -0.139005,0.0061 -0.277917,0.01234 -0.416801,0.01785 -0.401856,0.01624 -0.803684,0.03702 -1.205542,0.04709 l -1.205421,0.03344 -1.140189,0.02272 c -0.385922,0.424059 -0.768067,0.852014 -1.157881,1.271852 l -1.209677,1.308219 -1.219037,1.297827 -1.230052,1.286464 -0.04377,0.04546 -0.05645,-9.92e-4 c -0.696072,-0.01332 -1.392148,-0.03215 -2.088223,-0.05585 l -1.044412,-0.04416 c -0.348035,-0.01331 -0.696075,-0.03053 -1.044112,-0.05228 0.348037,-0.02175 0.696077,-0.03897 1.044112,-0.05228 l 1.044412,-0.04416 c 0.675548,-0.02305 1.3514,-0.04091 2.026948,-0.05422 l 1.157013,-1.28026 1.206691,-1.311141 1.216136,-1.301075 c 0.40454,-0.434793 0.817353,-0.860476 1.22555,-1.291028 l 0.04657,-0.04935 0.06097,0.0013 1.20539,0.02435 1.205422,0.03312 c 0.401858,0.01003 0.803685,0.03085 1.205543,0.04709 0.138882,0.0055 0.277796,0.01169 0.4168,0.01819 v -0.887731 c -0.337353,0.01981 -0.674795,0.03539 -1.012147,0.04967"
       style="fill:#3f3f3f;fill-opacity:1;fill-rule:nonzero;stroke:none;stroke-width:0.0313068"
       id="path746" />
    <path
       d="m 52.375735,32.991754 c -0.145131,-0.149363 -0.298774,-0.2997 -0.448283,-0.459453 -0.150594,-0.158777 -0.303392,-0.319829 -0.45622,-0.481205 -0.149961,-0.164299 -0.299952,-0.328922 -0.447709,-0.490623 -0.148904,-0.160403 -0.288271,-0.325999 -0.427062,-0.482182 -0.275202,-0.314634 -0.526705,-0.614006 -0.737761,-0.875716 -0.142807,-0.175014 -0.265209,-0.33087 -0.367295,-0.463672 -0.08775,0.07565 -0.197382,0.123061 -0.318365,0.123061 -0.282051,0 -0.511611,-0.246773 -0.511611,-0.550366 0,-0.303271 0.22956,-0.55037 0.511611,-0.55037 0.282142,0 0.511612,0.247099 0.511612,0.55037 0,0.130204 -0.04386,0.248071 -0.114252,0.342558 0.123458,0.109749 0.268347,0.241253 0.431077,0.394836 0.243142,0.227289 0.521392,0.497766 0.813947,0.793894 0.145133,0.149361 0.299138,0.299049 0.448283,0.45945 0.150475,0.158778 0.303152,0.320155 0.45598,0.481531 0.149992,0.164298 0.299953,0.328598 0.447589,0.490623 0.148451,0.160726 0.288179,0.325999 0.42685,0.48218 0.27508,0.314959 0.526705,0.614333 0.737881,0.875716 0.424709,0.520171 0.685902,0.890655 0.685902,0.890655 0,0 -0.344445,-0.280866 -0.828105,-0.737719 -0.243143,-0.226966 -0.521271,-0.497767 -0.814069,-0.793568"
       style="fill:#3f3f3f;fill-opacity:1;fill-rule:nonzero;stroke:none;stroke-width:0.0313068"
       id="path748" />
    <path
       d="m 32.425122,23.879031 c 0.124756,0.134426 0.240185,0.274373 0.355734,0.405552 0.228987,0.264956 0.437447,0.517897 0.611495,0.739667 0.09457,0.118841 0.177912,0.227615 0.250899,0.3247 0.08654,-0.07208 0.19361,-0.116567 0.311303,-0.116567 0.282052,0 0.511612,0.246772 0.511612,0.550369 0,0.303268 -0.22956,0.550042 -0.511612,0.550042 -0.282173,0 -0.511612,-0.246774 -0.511612,-0.550042 0,-0.126635 0.04151,-0.241903 0.108577,-0.335093 -0.09043,-0.07825 -0.191494,-0.168194 -0.301973,-0.269825 C 33.043317,24.990482 32.808204,24.766439 32.561892,24.519991 32.439975,24.39563 32.309784,24.271594 32.185058,24.137493 32.058882,24.00469 31.930837,23.86994 31.80267,23.735189 31.677311,23.597191 31.552101,23.459194 31.428764,23.323469 31.304492,23.189042 31.1887,23.049421 31.073151,22.917917 30.844406,22.652961 30.635917,22.40002 30.461777,22.17825 c -0.350665,-0.44062 -0.562566,-0.757853 -0.562566,-0.757853 0,0 0.295032,0.22794 0.704768,0.605242 0.206107,0.187028 0.4411,0.411396 0.687533,0.65752 0.122038,0.12436 0.251866,0.248721 0.377074,0.382496 0.126176,0.13248 0.254344,0.267229 0.382509,0.402305 0.12536,0.137674 0.25069,0.27567 0.374027,0.411071"
       style="fill:#3f3f3f;fill-opacity:1;fill-rule:nonzero;stroke:none;stroke-width:0.0313068"
       id="path750" />
    <path
       d="m 36.953286,37.790827 c 0.282021,0 0.511612,0.246773 0.511612,0.550368 0,0.283787 -0.201518,0.515299 -0.458335,0.544523 0.01582,0.187677 0.03278,0.415941 0.04764,0.676026 0.02276,0.366263 0.04163,0.793568 0.05388,1.251071 0.0045,0.228914 0.01488,0.465621 0.01501,0.7059 0.0019,0.240278 0.0039,0.484452 0.0059,0.728627 -0.002,0.243851 -0.0041,0.488026 -0.0061,0.728305 -7.31e-4,0.240278 -0.01046,0.476985 -0.01509,0.705899 -0.01249,0.457501 -0.03137,0.884808 -0.054,1.25107 -0.04163,0.732201 -0.100454,1.22055 -0.100454,1.22055 0,0 -0.05887,-0.488349 -0.100486,-1.22055 -0.02276,-0.366262 -0.04151,-0.793569 -0.054,-1.25107 -0.0046,-0.228914 -0.01437,-0.465621 -0.01521,-0.705899 -0.0019,-0.240279 -0.004,-0.484454 -0.0061,-0.728305 0.0022,-0.244175 0.004,-0.488349 0.006,-0.728627 9e-5,-0.240279 0.01046,-0.476986 0.01497,-0.7059 0.01225,-0.457503 0.03112,-0.884808 0.05388,-1.251071 0.01474,-0.260085 0.03181,-0.488349 0.04764,-0.676026 -0.256818,-0.02922 -0.458335,-0.260736 -0.458335,-0.544523 0,-0.303595 0.229589,-0.550368 0.511642,-0.550368"
       style="fill:#3f3f3f;fill-opacity:1;fill-rule:nonzero;stroke:none;stroke-width:0.0313068"
       id="path752" />
    <path
       d="m 35.922728,32.504054 c 0.282052,0 0.51149,0.246771 0.51149,0.550366 0,0.30327 -0.229438,0.550368 -0.51149,0.550368 -0.128168,0 -0.2442,-0.05292 -0.334062,-0.137025 -0.261857,0.322428 -0.526825,0.641935 -0.795896,0.956569 l -0.02545,0.02988 -0.04637,0.0023 c -0.598968,0.02825 -1.197966,0.04806 -1.796962,0.05877 -0.574941,0.01494 -1.149761,0.01592 -1.724582,0.01981 -0.630329,0.675377 -1.265068,1.345883 -1.913056,2.002104 -0.331737,0.338662 -0.6677,0.671805 -1.005171,1.003973 -0.340491,0.328598 -0.679775,0.658818 -1.030832,0.97605 0.294912,-0.377627 0.601596,-0.742589 0.907372,-1.108852 0.308797,-0.363015 0.618498,-0.724732 0.933331,-1.081253 0.626348,-0.715966 1.266942,-1.416994 1.91194,-2.113476 l 0.05162,-0.05585 0.07242,6.54e-4 c 0.598999,0.0042 1.197966,0.0052 1.796965,0.02046 0.5865,0.01036 1.173001,0.02988 1.759472,0.05748 0.281448,-0.277943 0.56682,-0.551991 0.854879,-0.822791 -0.07818,-0.09644 -0.127232,-0.221122 -0.127232,-0.35912 0,-0.303595 0.22944,-0.550367 0.511612,-0.550367"
       style="fill:#3f3f3f;fill-opacity:1;fill-rule:nonzero;stroke:none;stroke-width:0.0313068"
       id="path756" />
    <path
       d="m 45.484752,36.579694 c -0.118023,-0.12988 -0.236049,-0.25976 -0.352202,-0.387692 -0.117421,-0.126634 -0.225786,-0.258786 -0.334635,-0.382822 -0.215191,-0.250018 -0.410793,-0.488999 -0.573733,-0.69908 -0.09553,-0.121113 -0.178305,-0.230863 -0.249874,-0.327948 -0.08654,0.07208 -0.193609,0.116568 -0.31115,0.116568 -0.282053,0 -0.511643,-0.246772 -0.511643,-0.550368 0,-0.303269 0.22959,-0.550368 0.511643,-0.550368 0.282141,0 0.511611,0.247099 0.511611,0.550368 0,0.128906 -0.04305,0.245797 -0.11226,0.339637 0.0902,0.07696 0.191949,0.165921 0.304329,0.268526 0.195269,0.175339 0.417524,0.385745 0.650042,0.617257 0.115216,0.116893 0.238192,0.23346 0.355734,0.360093 0.118991,0.124686 0.239853,0.251643 0.360594,0.378601 0.118025,0.12988 0.235929,0.260085 0.352081,0.388016 0.11697,0.126959 0.225666,0.258787 0.334394,0.382822 0.215071,0.250344 0.410672,0.489325 0.573763,0.699406 0.328718,0.416915 0.52598,0.718562 0.52598,0.718562 0,0 -0.280393,-0.212354 -0.668062,-0.565953 -0.195148,-0.175338 -0.417403,-0.385744 -0.650041,-0.617256 -0.115217,-0.116892 -0.237831,-0.233783 -0.355885,-0.359443 -0.118962,-0.12501 -0.239944,-0.251968 -0.360686,-0.378926"
       style="fill:#3f3f3f;fill-opacity:1;fill-rule:nonzero;stroke:none;stroke-width:0.0313068"
       id="path758" />
    <path
       d="m 54.124614,31.043224 c -0.144799,-0.155531 -0.284285,-0.316907 -0.41034,-0.473413 -0.124635,-0.152284 -0.235476,-0.299698 -0.327088,-0.431851 -0.07534,0.04709 -0.161763,0.0763 -0.255036,0.0763 -0.282172,0 -0.511612,-0.247097 -0.511612,-0.550366 0,-0.303596 0.22944,-0.550368 0.511612,-0.550368 0.282052,0 0.511491,0.246772 0.511491,0.550368 0,0.122737 -0.03878,0.235083 -0.102234,0.326973 0.120409,0.09676 0.253768,0.212678 0.391836,0.343533 0.145252,0.135725 0.295243,0.285736 0.439921,0.441268 0.144921,0.155857 0.283833,0.317557 0.410099,0.473738 0.126869,0.155531 0.240306,0.305868 0.332764,0.439969 0.187692,0.265281 0.290866,0.465621 0.290866,0.465621 0,0 -0.186304,-0.110724 -0.432949,-0.312686 C 54.849429,31.74262 54.70946,31.620863 54.564902,31.484164 54.419861,31.34844 54.269297,31.199078 54.124619,31.04322"
       style="fill:#3f3f3f;fill-opacity:1;fill-rule:nonzero;stroke:none;stroke-width:0.0313068"
       id="path760" />
    <path
       d="m 52.840891,27.227344 c -0.117782,0.127932 -0.233574,0.258137 -0.353017,0.38477 l -0.358692,0.378276 -0.0508,0.05389 h -0.06958 c -0.23629,-3.12e-4 -0.472581,-0.01169 -0.708871,-0.01819 -0.236411,-0.0049 -0.472704,-0.02208 -0.709024,-0.0328 -0.236291,-0.01623 -0.472581,-0.02987 -0.708993,-0.05292 -0.06755,-0.0059 -0.135231,-0.01331 -0.202816,-0.02013 -0.02792,0.275347 -0.242902,0.490947 -0.506057,0.490947 -0.282052,0 -0.511612,-0.246772 -0.511612,-0.550041 0,-0.303595 0.22956,-0.550369 0.511612,-0.550369 0.263155,0 0.478136,0.215601 0.506057,0.490947 0.06758,-0.0068 0.13526,-0.01428 0.202816,-0.02013 0.236412,-0.02305 0.472702,-0.03669 0.708993,-0.05292 0.23632,-0.01068 0.472613,-0.02793 0.709024,-0.03279 0.21199,-0.0058 0.424104,-0.01461 0.636245,-0.01656 l 0.304209,-0.333796 c 0.117452,-0.128255 0.238525,-0.252942 0.357636,-0.379574 0.237107,-0.254564 0.482484,-0.500039 0.726079,-0.747785 0.493833,-0.488024 0.992705,-0.97053 1.527197,-1.41472 -0.413056,0.575044 -0.861581,1.11145 -1.315296,1.642661 -0.230163,0.262032 -0.458575,0.526013 -0.695108,0.781228"
       style="fill:#3f3f3f;fill-opacity:1;fill-rule:nonzero;stroke:none;stroke-width:0.0313068"
       id="path762" />
    <path
       d="m 39.50923,36.430008 c 0.282052,0 0.511642,0.247095 0.511642,0.550367 0,0.254889 -0.16285,0.468217 -0.382056,0.530236 0.03563,0.233784 0.05708,0.517247 0.0572,0.803958 -6.07e-4,0.333468 -0.02854,0.666935 -0.07522,0.916955 -0.04175,0.250344 -0.100573,0.416915 -0.100573,0.416915 0,0 -0.05874,-0.166571 -0.100486,-0.416915 -0.04667,-0.25002 -0.07462,-0.583487 -0.07534,-0.916955 2.49e-4,-0.283788 0.02122,-0.564329 0.05615,-0.796815 -0.229921,-0.05389 -0.402914,-0.274046 -0.402914,-0.537379 0,-0.303272 0.229591,-0.550367 0.511612,-0.550367"
       style="fill:#3f3f3f;fill-opacity:1;fill-rule:nonzero;stroke:none;stroke-width:0.0313068"
       id="path764" />
    <path
       d="m 34.915865,41.478128 c 0.01229,-0.409123 0.03116,-0.790647 0.05392,-1.117945 0.04172,-0.654271 0.100907,-1.090669 0.100907,-1.090669 0,0 0.05919,0.436398 0.100939,1.090669 0.02276,0.327298 0.04163,0.708822 0.05388,1.117945 0.0045,0.204236 0.01486,0.415616 0.01497,0.630243 0.002,0.214951 0.0039,0.432825 0.0059,0.651025 -0.002,0.218198 -0.004,0.436398 -0.0061,0.651023 -7.31e-4,0.214628 -0.01046,0.426008 -0.01509,0.630571 -0.01253,0.408796 -0.03139,0.790643 -0.05403,1.117619 -0.0416,0.654596 -0.100454,1.090669 -0.100454,1.090669 0,0 -0.05883,-0.436073 -0.100453,-1.090669 -0.02276,-0.326976 -0.04151,-0.708823 -0.054,-1.117619 -0.0046,-0.204563 -0.01437,-0.415943 -0.01509,-0.630571 -0.0019,-0.214625 -0.0041,-0.432825 -0.0063,-0.651023 0.0022,-0.2182 0.0041,-0.436074 0.0059,-0.651025 1.2e-4,-0.214627 0.01046,-0.426007 0.01497,-0.630243"
       style="fill:#3f3f3f;fill-opacity:1;fill-rule:nonzero;stroke:none;stroke-width:0.0313068"
       id="path766" />
    <path
       d="m 34.146381,46.052509 c -0.02085,-0.124684 -0.05164,-0.329572 -0.07652,-0.58771 -0.02263,-0.215923 -0.04139,-0.468217 -0.054,-0.738369 -0.01319,-0.270149 -0.02146,-0.558159 -0.02134,-0.846493 0,-0.288007 0.0074,-0.576342 0.02098,-0.846495 0.01229,-0.269826 0.03115,-0.522117 0.05388,-0.738368 0.04175,-0.432177 0.100939,-0.720186 0.100939,-0.720186 0,0 0.05919,0.288009 0.100939,0.720186 0.02276,0.216251 0.04162,0.468542 0.05388,0.738368 0.01356,0.270153 0.02098,0.558488 0.02098,0.846495 1.21e-4,0.288334 -0.008,0.576344 -0.02134,0.846493 -0.01249,0.270152 -0.03124,0.522446 -0.054,0.738369 -0.02146,0.22307 -0.04739,0.406528 -0.06755,0.533161 l -0.01756,0.104553 c -0.0092,0.05195 -0.01534,0.08281 -0.01534,0.08281 0,0 -0.0042,-0.02144 -0.01108,-0.05911 l -0.01286,-0.07371"
       style="fill:#3f3f3f;fill-opacity:1;fill-rule:nonzero;stroke:none;stroke-width:0.0313068"
       id="path768" />
    <path
       d="m 43.94201,37.124542 c -0.170397,-0.201964 -0.324131,-0.396135 -0.451363,-0.567576 -0.256938,-0.339963 -0.405962,-0.590307 -0.405962,-0.590307 0,0 0.232729,0.160402 0.54874,0.436723 0.159408,0.136699 0.339825,0.302297 0.52755,0.485428 0.188657,0.182481 0.384862,0.382172 0.575875,0.587706 0.191013,0.205213 0.37626,0.416917 0.545812,0.61953 0.170275,0.202288 0.324129,0.396135 0.451361,0.567576 0.256938,0.339962 0.406325,0.589981 0.406325,0.589981 0,0 -0.232517,-0.160727 -0.548529,-0.437047 -0.159167,-0.137023 -0.339584,-0.302295 -0.527518,-0.485427 -0.188447,-0.182482 -0.385226,-0.381848 -0.576118,-0.587384 -0.191043,-0.20521 -0.376743,-0.41659 -0.546173,-0.619203"
       style="fill:#3f3f3f;fill-opacity:1;fill-rule:nonzero;stroke:none;stroke-width:0.0313068"
       id="path770" />
    <path
       d="m 46.531822,35.555913 c -0.157537,-0.188001 -0.299378,-0.369509 -0.416347,-0.529586 -0.236412,-0.318207 -0.371914,-0.55394 -0.371914,-0.55394 0,0 0.219087,0.145792 0.514691,0.400355 0.149056,0.125661 0.31767,0.27827 0.492534,0.447763 0.175921,0.168521 0.358571,0.353599 0.535791,0.544524 0.177458,0.190598 0.349002,0.387366 0.505815,0.576343 0.157417,0.188651 0.299379,0.369835 0.416347,0.52991 0.236532,0.317883 0.372245,0.55329 0.372245,0.55329 0,0 -0.218843,-0.14579 -0.514449,-0.400355 -0.148904,-0.125659 -0.317398,-0.278594 -0.492503,-0.447762 -0.17568,-0.168844 -0.358815,-0.353274 -0.536032,-0.544198 -0.17746,-0.190599 -0.349486,-0.387045 -0.506178,-0.576344"
       style="fill:#3f3f3f;fill-opacity:1;fill-rule:nonzero;stroke:none;stroke-width:0.0313068"
       id="path772" />
    <path
       d="m 48.90279,33.966829 c -0.09647,-0.103583 -0.18395,-0.213653 -0.272634,-0.315933 -0.175075,-0.206835 -0.333216,-0.405552 -0.4641,-0.581214 -0.264332,-0.347755 -0.418459,-0.60362 -0.418459,-0.60362 0,0 0.237831,0.165923 0.561267,0.450035 0.163061,0.140921 0.347826,0.311064 0.540135,0.499391 0.09518,0.09513 0.197383,0.189624 0.293855,0.293203 0.09786,0.102277 0.197262,0.206186 0.296662,0.31009 0.09644,0.106829 0.193006,0.213653 0.288059,0.31918 0.09587,0.10423 0.183829,0.213653 0.272362,0.315934 0.174864,0.207158 0.333096,0.405875 0.463979,0.581213 0.264484,0.347756 0.418821,0.603295 0.418821,0.603295 0,0 -0.237588,-0.165923 -0.560903,-0.45036 -0.162941,-0.14092 -0.347705,-0.311062 -0.540257,-0.499064 -0.09506,-0.09546 -0.196929,-0.189951 -0.293945,-0.293205 -0.0979,-0.102277 -0.197291,-0.205861 -0.296692,-0.309765 -0.09656,-0.106829 -0.193126,-0.213978 -0.28815,-0.31918"
       style="fill:#3f3f3f;fill-opacity:1;fill-rule:nonzero;stroke:none;stroke-width:0.0313068"
       id="path774" />
    <path
       d="M 53.311602,32.135193 C 53.205711,32.02447 53.098313,31.911799 52.990762,31.799452 52.886166,31.683858 52.781607,31.568265 52.678554,31.454296 52.574206,31.34195 52.478788,31.223758 52.38271,31.11336 c -0.1902,-0.223069 -0.362467,-0.437046 -0.505365,-0.625698 -0.288662,-0.37373 -0.458817,-0.646804 -0.458817,-0.646804 0,0 0.253888,0.183131 0.601594,0.493221 0.175104,0.153908 0.374026,0.339312 0.58143,0.543549 0.102568,0.103582 0.212716,0.206186 0.317187,0.318532 0.105739,0.110721 0.21305,0.223393 0.3206,0.335739 0.104586,0.115593 0.209154,0.231187 0.312115,0.345158 0.103874,0.11267 0.199618,0.230861 0.295697,0.341258 0.189956,0.223394 0.362223,0.437373 0.505393,0.625699 0.288511,0.37373 0.459029,0.646478 0.459029,0.646478 0,0 -0.253648,-0.18313 -0.601232,-0.493869 -0.174985,-0.153582 -0.373786,-0.338986 -0.581552,-0.543548 -0.102686,-0.103258 -0.212354,-0.206184 -0.317187,-0.317882"
       style="fill:#3f3f3f;fill-opacity:1;fill-rule:nonzero;stroke:none;stroke-width:0.0313068"
       id="path776" />
    <path
       d="m 54.927453,29.841509 c -0.07084,-0.139946 -0.09595,-0.256839 -0.09595,-0.256839 0,0 0.108697,0.02696 0.238765,0.103258 0.1336,0.07241 0.287123,0.19547 0.421176,0.339312 0.1336,0.144492 0.247731,0.309764 0.315166,0.453283 0.07087,0.139946 0.09635,0.256512 0.09635,0.256512 0,0 -0.108607,-0.02727 -0.238524,-0.103582 -0.133479,-0.07241 -0.287123,-0.195147 -0.421539,-0.338989 -0.133842,-0.144166 -0.248093,-0.309116 -0.315438,-0.452957"
       style="fill:#3f3f3f;fill-opacity:1;fill-rule:nonzero;stroke:none;stroke-width:0.0313068"
       id="path778" />
    <path
       d="m 54.776438,26.804908 c -0.109211,0.137674 -0.229953,0.280217 -0.356461,0.415941 -0.126416,0.136375 -0.258235,0.26658 -0.386402,0.383797 -0.127231,0.118191 -0.251263,0.22307 -0.362225,0.307816 -0.219295,0.172417 -0.3877,0.263332 -0.3877,0.263332 0,0 0.08467,-0.180857 0.244924,-0.416916 0.07876,-0.119489 0.176162,-0.252616 0.286036,-0.38964 0.10909,-0.137998 0.230285,-0.279567 0.356821,-0.415617 0.126387,-0.136049 0.258689,-0.26593 0.386614,-0.383471 0.127473,-0.11819 0.251384,-0.222745 0.362345,-0.307816 0.219206,-0.172416 0.387218,-0.263657 0.387218,-0.263657 0,0 -0.08488,0.180857 -0.245135,0.416591 -0.07887,0.11949 -0.176281,0.252617 -0.286035,0.38964"
       style="fill:#3f3f3f;fill-opacity:1;fill-rule:nonzero;stroke:none;stroke-width:0.0313068"
       id="path780" />
    <path
       d="m 55.049735,29.005403 c -0.248093,-3.13e-4 -0.496036,-0.03019 -0.682098,-0.08053 -0.186063,-0.04513 -0.310125,-0.108774 -0.310125,-0.108774 0,0 0.124062,-0.06365 0.310125,-0.10845 0.186062,-0.05065 0.434005,-0.08021 0.682098,-0.08053 0.247972,6.53e-4 0.496066,0.03084 0.682129,0.08085 0.185941,0.04481 0.309973,0.108129 0.309973,0.108129 0,0 -0.124032,0.06332 -0.309973,0.108127 -0.186063,0.05032 -0.434157,0.08053 -0.682129,0.08117"
       style="fill:#3f3f3f;fill-opacity:1;fill-rule:nonzero;stroke:none;stroke-width:0.0313068"
       id="path782" />
    <path
       d="m 53.337774,24.723901 c -0.166141,0.199043 -0.347585,0.406852 -0.534946,0.608166 -0.187239,0.201314 -0.379792,0.397108 -0.564919,0.575693 -0.184191,0.17956 -0.36153,0.341585 -0.517981,0.475362 -0.310455,0.270152 -0.539562,0.426657 -0.539562,0.426657 0,0 0.145493,-0.246448 0.396755,-0.58024 0.124395,-0.16852 0.274989,-0.359119 0.441824,-0.557186 0.166019,-0.199365 0.347946,-0.406525 0.535306,-0.60784 0.187149,-0.201313 0.380154,-0.396785 0.565161,-0.575369 0.184402,-0.179234 0.36153,-0.34126 0.517981,-0.475362 0.310335,-0.270152 0.539201,-0.426981 0.539201,-0.426981 0,0 -0.145615,0.246123 -0.397119,0.579915 -0.124393,0.168519 -0.274958,0.358795 -0.441701,0.557185"
       style="fill:#3f3f3f;fill-opacity:1;fill-rule:nonzero;stroke:none;stroke-width:0.0313068"
       id="path784" />
    <path
       d="m 51.100646,22.648091 c -0.09327,0.107476 -0.186063,0.222095 -0.286881,0.331844 -0.09985,0.110398 -0.201397,0.222745 -0.30279,0.335092 -0.104348,0.109098 -0.208701,0.218198 -0.311392,0.325675 -0.101424,0.109098 -0.208489,0.208456 -0.308102,0.308789 -0.201758,0.198393 -0.395126,0.377627 -0.565643,0.526664 -0.338408,0.300348 -0.586018,0.476662 -0.586018,0.476662 0,0 0.164027,-0.266581 0.443242,-0.630244 0.138308,-0.183456 0.305143,-0.391589 0.489455,-0.60849 0.09325,-0.107476 0.1857,-0.222419 0.286971,-0.331519 0.09988,-0.110398 0.201398,-0.222744 0.302942,-0.335091 0.104466,-0.109099 0.208822,-0.218199 0.311512,-0.325675 0.101877,-0.10845 0.20858,-0.208133 0.308343,-0.308465 0.20185,-0.198068 0.395217,-0.377628 0.565613,-0.526664 0.338287,-0.300349 0.585777,-0.476986 0.585777,-0.476986 0,0 -0.164238,0.266254 -0.443694,0.629919 -0.138309,0.183456 -0.305144,0.391589 -0.489335,0.608489"
       style="fill:#3f3f3f;fill-opacity:1;fill-rule:nonzero;stroke:none;stroke-width:0.0313068"
       id="path786" />
    <path
       d="m 48.102759,21.475922 c -0.124757,0.141246 -0.249875,0.290931 -0.383688,0.435748 -0.132785,0.146115 -0.267772,0.294503 -0.402793,0.442567 -0.137826,0.145465 -0.275682,0.290607 -0.411396,0.433475 -0.134173,0.144492 -0.273781,0.278593 -0.404785,0.413021 -0.264484,0.265604 -0.516562,0.508156 -0.737308,0.711093 -0.438744,0.408473 -0.753456,0.656868 -0.753456,0.656868 0,0 0.231009,-0.338661 0.610801,-0.810451 0.188537,-0.237681 0.413871,-0.508807 0.660999,-0.793245 0.124755,-0.140918 0.249512,-0.290931 0.383806,-0.435423 0.132756,-0.146115 0.267894,-0.294179 0.402914,-0.442566 0.137826,-0.145143 0.275652,-0.290283 0.411366,-0.433151 0.134777,-0.143842 0.273933,-0.278594 0.405027,-0.412695 0.264726,-0.265604 0.516713,-0.508156 0.737308,-0.711095 0.438743,-0.408473 0.753095,-0.657193 0.753095,-0.657193 0,0 -0.231222,0.338338 -0.611014,0.810127 -0.188537,0.237357 -0.413991,0.508482 -0.660876,0.79292"
       style="fill:#3f3f3f;fill-opacity:1;fill-rule:nonzero;stroke:none;stroke-width:0.0313068"
       id="path788" />
    <path
       d="m 45.013831,20.465778 c -0.113074,0.128581 -0.226269,0.26528 -0.347856,0.397109 -0.120621,0.133128 -0.243112,0.267877 -0.365757,0.402954 -0.125449,0.131828 -0.250809,0.263657 -0.374237,0.393537 -0.12216,0.131179 -0.249753,0.252617 -0.369196,0.374379 -0.241122,0.240603 -0.471526,0.459776 -0.673617,0.642583 -0.401616,0.368534 -0.691456,0.590306 -0.691456,0.590306 0,0 0.206136,-0.311713 0.548648,-0.743889 0.170035,-0.217225 0.373665,-0.465298 0.59758,-0.724732 0.113074,-0.128257 0.225817,-0.265604 0.347856,-0.396785 0.120741,-0.132803 0.243234,-0.267878 0.365877,-0.402627 0.125451,-0.13183 0.250901,-0.263658 0.374478,-0.393538 0.122614,-0.130855 0.249725,-0.252617 0.369168,-0.374055 0.241362,-0.240604 0.471647,-0.459777 0.673767,-0.642583 0.401465,-0.368535 0.691064,-0.59063 0.691064,-0.59063 0,0 -0.206349,0.311388 -0.548861,0.743239 -0.170035,0.21755 -0.373905,0.465296 -0.597458,0.724732"
       style="fill:#3f3f3f;fill-opacity:1;fill-rule:nonzero;stroke:none;stroke-width:0.0313068"
       id="path790" />
    <path
       d="m 40.149613,20.931399 c -0.04174,0.274047 -0.10094,0.456854 -0.10094,0.456854 0,0 -0.05907,-0.182807 -0.100906,-0.456854 -0.02276,-0.137023 -0.04163,-0.297101 -0.05392,-0.468219 -0.01356,-0.171441 -0.02097,-0.354248 -0.02097,-0.537054 -1.21e-4,-0.182807 0.0081,-0.365614 0.02133,-0.53673 0.01262,-0.171442 0.03136,-0.331195 0.05401,-0.468543 0.04163,-0.274047 0.100453,-0.456854 0.100453,-0.456854 0,0 0.05886,0.182807 0.100584,0.456854 0.02263,0.137348 0.04141,0.297101 0.05392,0.468543 0.01331,0.171116 0.02146,0.353923 0.02134,0.53673 0,0.182806 -0.0074,0.365613 -0.021,0.537054 -0.01226,0.171118 -0.03112,0.331196 -0.05388,0.468219"
       style="fill:#3f3f3f;fill-opacity:1;fill-rule:nonzero;stroke:none;stroke-width:0.0313068"
       id="path792" />
    <path
       d="m 42.048121,19.398163 c -0.146459,0.157154 -0.312359,0.293854 -0.455256,0.376003 -0.139397,0.08638 -0.254343,0.120139 -0.254343,0.120139 0,0 0.03124,-0.123711 0.111536,-0.273722 0.07652,-0.153583 0.203298,-0.332169 0.349486,-0.489649 0.146821,-0.157155 0.312841,-0.293205 0.455618,-0.375679 0.139245,-0.08636 0.253979,-0.120464 0.253979,-0.120464 0,0 -0.03161,0.123387 -0.111777,0.273398 -0.07675,0.153584 -0.203267,0.332169 -0.349243,0.489974"
       style="fill:#3f3f3f;fill-opacity:1;fill-rule:nonzero;stroke:none;stroke-width:0.0313068"
       id="path794" />
    <path
       d="m 38.086051,21.595087 c -0.04188,0.324051 -0.100939,0.540302 -0.100939,0.540302 0,0 -0.05919,-0.216251 -0.100939,-0.540302 -0.02276,-0.162025 -0.04171,-0.351326 -0.05388,-0.553939 -0.01367,-0.202614 -0.0211,-0.41854 -0.02097,-0.634791 -1.21e-4,-0.215925 0.0081,-0.432175 0.02134,-0.634789 0.01249,-0.202613 0.03124,-0.391588 0.05388,-0.553614 0.04175,-0.324376 0.100572,-0.540302 0.100572,-0.540302 0,0 0.05872,0.215926 0.100454,0.540302 0.02263,0.162026 0.04139,0.351001 0.05388,0.553614 0.01334,0.202614 0.02146,0.418864 0.02134,0.634789 1.21e-4,0.216251 -0.0072,0.432177 -0.02097,0.634791 -0.01214,0.202613 -0.03099,0.391914 -0.05377,0.553939"
       style="fill:#3f3f3f;fill-opacity:1;fill-rule:nonzero;stroke:none;stroke-width:0.0313068"
       id="path796" />
    <path
       d="m 36.212658,19.952427 c -0.173082,-0.18995 -0.326605,-0.400682 -0.423531,-0.577967 -0.100453,-0.173716 -0.145252,-0.313012 -0.145252,-0.313012 0,0 0.128621,0.05066 0.288391,0.161052 0.163423,0.107152 0.356942,0.275345 0.53096,0.464322 0.173325,0.18995 0.327209,0.400356 0.423894,0.577967 0.100335,0.17339 0.14504,0.313011 0.14504,0.313011 0,0 -0.129012,-0.05001 -0.288903,-0.160727 -0.163636,-0.106829 -0.356913,-0.275346 -0.530599,-0.464646"
       style="fill:#3f3f3f;fill-opacity:1;fill-rule:nonzero;stroke:none;stroke-width:0.0313068"
       id="path798" />
    <path
       d="m 34.422758,22.845509 c 0.245739,0.327947 0.387458,0.570499 0.387458,0.570499 0,0 -0.225303,-0.152285 -0.530236,-0.416915 -0.153763,-0.130531 -0.327661,-0.288984 -0.508442,-0.464973 -0.181563,-0.174688 -0.370464,-0.366261 -0.55393,-0.564004 -0.183586,-0.197093 -0.36141,-0.401005 -0.524139,-0.59615 -0.163182,-0.194496 -0.310455,-0.381524 -0.432133,-0.546797 -0.245859,-0.327947 -0.387822,-0.570173 -0.387822,-0.570173 0,0 0.225213,0.152609 0.529906,0.41724 0.153764,0.130855 0.327569,0.289309 0.508562,0.464971 0.181444,0.175014 0.370826,0.366263 0.554172,0.563681 0.183587,0.197417 0.361862,0.400355 0.524349,0.595825 0.163424,0.194495 0.310698,0.381522 0.432255,0.546796"
       style="fill:#3f3f3f;fill-opacity:1;fill-rule:nonzero;stroke:none;stroke-width:0.0313068"
       id="path800" />
    <path
       d="m 29.369671,24.349522 c 0.107756,0.112671 0.217031,0.226966 0.326304,0.341586 0.106548,0.117541 0.213016,0.235082 0.317852,0.351001 0.106246,0.114294 0.203388,0.234434 0.301369,0.34678 0.19361,0.226966 0.369078,0.444516 0.514811,0.635764 0.294188,0.3799 0.468113,0.657194 0.468113,0.657194 0,0 -0.25763,-0.187353 -0.61089,-0.50361 -0.177943,-0.156831 -0.380033,-0.345482 -0.590998,-0.55394 -0.104348,-0.1052 -0.216249,-0.209756 -0.32247,-0.32405 -0.107671,-0.112672 -0.216944,-0.227292 -0.326213,-0.341911 -0.106559,-0.117542 -0.212807,-0.235083 -0.317551,-0.351002 -0.105653,-0.114619 -0.20345,-0.234757 -0.30125,-0.347103 -0.193487,-0.226967 -0.369165,-0.444516 -0.514961,-0.635765 -0.294005,-0.379899 -0.468174,-0.656546 -0.468174,-0.656546 0,0 0.257179,0.187354 0.610348,0.50361 0.178092,0.156833 0.380031,0.345808 0.591028,0.553941 0.104445,0.1052 0.216127,0.210081 0.322682,0.324051"
       style="fill:#3f3f3f;fill-opacity:1;fill-rule:nonzero;stroke:none;stroke-width:0.0313068"
       id="path802" />
    <path
       d="m 27.111203,27.898501 c 0,0 -0.14972,-0.07111 -0.341095,-0.213654 -0.194998,-0.138323 -0.430443,-0.349378 -0.646269,-0.581214 -0.21522,-0.232486 -0.411426,-0.486077 -0.540015,-0.695509 -0.132514,-0.20586 -0.198922,-0.366587 -0.198922,-0.366587 0,0 0.14972,0.07111 0.340792,0.213654 0.194997,0.138322 0.430744,0.349377 0.646872,0.580889 0.215524,0.232484 0.411729,0.485427 0.540319,0.695184 0.132513,0.206185 0.198318,0.367237 0.198318,0.367237"
       style="fill:#3f3f3f;fill-opacity:1;fill-rule:nonzero;stroke:none;stroke-width:0.0313068"
       id="path804" />
    <path
       d="m 25.158209,29.994766 c 0.140664,-0.0049 0.286159,-0.01558 0.433764,-0.01623 0.147907,-0.0023 0.297629,-0.0045 0.447952,-0.0068 0.15002,0.0023 0.300042,0.0045 0.447648,0.0066 0.147908,0 0.293101,0.01137 0.433763,0.01624 0.28163,0.01298 0.543942,0.03344 0.769122,0.05779 0.450367,0.04513 0.750409,0.108774 0.750409,0.108774 0,0 -0.300042,0.06364 -0.750409,0.108452 -0.22518,0.02435 -0.487492,0.04481 -0.769122,0.05812 -0.140662,0.0045 -0.285855,0.0159 -0.433763,0.0159 -0.147606,0.0023 -0.297628,0.0042 -0.447648,0.0066 -0.150323,-0.0023 -0.300045,-0.0045 -0.447952,-0.0068 -0.147605,-6.53e-4 -0.2931,-0.01136 -0.433764,-0.01623 -0.281327,-0.01331 -0.54394,-0.03344 -0.769121,-0.05779 -0.450063,-0.04513 -0.750107,-0.108124 -0.750107,-0.108124 0,0 0.300044,-0.06332 0.750107,-0.108127 0.225181,-0.02435 0.487794,-0.04481 0.769121,-0.05812"
       style="fill:#3f3f3f;fill-opacity:1;fill-rule:nonzero;stroke:none;stroke-width:0.0313068"
       id="path806" />
    <path
       d="m 30.524261,39.915343 c 0,0 0.0592,0.153258 0.100939,0.383472 0.04694,0.230212 0.07465,0.537055 0.07475,0.843896 -4.52e-4,0.306842 -0.02853,0.613685 -0.07522,0.843573 -0.04163,0.230211 -0.100454,0.38347 -0.100454,0.38347 0,0 -0.05883,-0.153259 -0.100583,-0.38347 -0.04669,-0.229888 -0.07465,-0.536731 -0.07522,-0.843573 2.27e-4,-0.306841 0.02795,-0.613684 0.07487,-0.843896 0.04175,-0.230214 0.100939,-0.383472 0.100939,-0.383472"
       style="fill:#3f3f3f;fill-opacity:1;fill-rule:nonzero;stroke:none;stroke-width:0.0313068"
       id="path810" />
  </g>
</svg>
