<?xml version="1.0" standalone="no"?>
<!DOCTYPE svg PUBLIC "-//W3C//DTD SVG 20010904//EN"
 "http://www.w3.org/TR/2001/REC-SVG-20010904/DTD/svg10.dtd">
<svg version="1.0" xmlns="http://www.w3.org/2000/svg"
 width="700.000000pt" height="700.000000pt" viewBox="0 0 700.000000 700.000000"
 preserveAspectRatio="xMidYMid meet">
<metadata>
Created by potrace 1.11, written by Peter Selinger 2001-2013
</metadata>
<g transform="translate(0.000000,700.000000) scale(0.100000,-0.100000)"
fill="#000000" stroke="none">
<path d="M1313 6963 c19 -21 72 -81 117 -133 46 -52 122 -138 170 -190 48 -52
99 -108 114 -125 23 -26 193 -204 359 -378 26 -28 47 -56 47 -64 0 -397 15
-1142 25 -1278 2 -22 4 -69 5 -105 l1 -65 70 -60 c39 -33 92 -80 118 -105 l47
-45 0 -140 -1 -140 -45 1 c-25 1 -83 4 -130 8 -47 3 -130 9 -185 12 -55 2
-127 7 -160 9 -57 4 -269 12 -528 20 l-117 3 -183 188 c-229 235 -548 554
-748 748 -85 82 -184 179 -222 215 l-67 65 0 -93 0 -94 580 -579 580 -579 182
6 c405 14 496 18 683 30 161 11 284 18 320 19 l40 1 0 -172 0 -171 -50 3 c-46
3 -143 9 -345 20 -165 9 -415 18 -815 30 -104 3 -412 8 -683 10 l-492 4 0 -75
0 -75 513 5 c281 4 586 8 677 11 395 12 696 23 795 30 33 2 123 7 200 11 77 3
154 7 170 7 l30 2 0 -167 0 -168 -62 5 c-34 2 -122 7 -195 10 -73 3 -160 8
-193 10 -33 2 -157 7 -275 11 -118 3 -246 8 -285 9 -38 2 -84 4 -100 4 -25 1
-34 8 -54 45 -26 50 -79 92 -135 107 -88 24 -201 -29 -238 -112 -7 -16 -20
-29 -28 -30 -8 0 -67 1 -130 1 -63 1 -244 3 -403 4 l-287 2 0 -73 0 -74 418 6
417 5 19 -40 c35 -72 138 -122 218 -105 72 16 127 57 153 116 17 37 20 39 64
40 25 0 82 2 126 4 44 1 177 6 295 10 118 4 240 8 270 10 30 2 124 6 209 10
85 4 163 8 172 10 10 2 19 -2 21 -8 3 -7 4 -84 4 -172 l-1 -160 -60 1 c-33 1
-139 5 -235 9 -267 11 -290 12 -515 20 -115 3 -257 8 -315 10 -58 2 -269 6
-470 10 l-365 6 -213 -210 -213 -210 3 -96 3 -96 152 153 c83 84 191 193 238
242 l86 90 172 2 c217 3 666 13 817 19 63 2 192 7 285 10 94 3 202 8 240 10
39 2 142 7 230 10 l160 7 0 -169 0 -168 -105 1 c-58 1 -197 5 -310 9 -113 4
-250 8 -305 10 -131 4 -694 17 -860 19 l-130 2 -189 -185 c-104 -102 -256
-252 -337 -333 l-149 -146 0 -96 c0 -53 3 -96 7 -96 4 0 104 98 221 218 118
119 279 283 359 364 l146 148 91 1 c176 2 789 17 986 24 286 11 489 18 530 19
l45 1 1 -41 c1 -36 -3 -43 -30 -58 -74 -40 -135 -117 -160 -201 -18 -59 -9
-63 70 -34 63 23 153 104 186 166 14 27 21 31 50 29 l33 -3 -1 -89 c0 -49 -4
-159 -7 -244 -4 -85 -10 -220 -13 -300 -10 -300 -9 -292 -41 -319 -32 -27
-334 -315 -562 -536 -86 -82 -358 -351 -606 -597 l-450 -448 103 0 103 0 232
234 c362 364 714 723 927 946 107 113 233 244 280 293 93 97 99 106 94 157 -1
19 -5 116 -9 215 -7 212 -19 502 -28 660 l-2 30 149 0 149 1 -7 -141 c-4 -77
-9 -176 -11 -220 -8 -173 -15 -368 -21 -550 l-5 -190 -97 -93 c-249 -239 -726
-707 -1025 -1007 l-329 -330 99 -3 98 -3 475 478 c261 264 529 535 595 604 66
69 159 166 207 216 l87 91 -4 128 c-10 327 -16 515 -20 579 -7 131 -18 370
-19 405 l-1 35 143 0 c151 0 145 2 144 -50 0 -11 -3 -94 -7 -185 -12 -252 -12
-261 -20 -470 -8 -230 -13 -375 -15 -521 l-2 -107 -167 -160 c-467 -450 -917
-895 -928 -919 -5 -10 -9 -40 -9 -68 l1 -50 72 -3 72 -3 3 34 c3 30 49 81 369
408 202 206 398 406 435 445 38 40 112 117 165 172 l97 100 -3 78 c-2 44 -6
187 -10 319 -3 132 -8 283 -10 335 -13 323 -26 619 -28 635 -1 5 132 9 348 9
l350 1 -1 -75 c0 -41 -4 -124 -9 -185 -10 -141 -11 -167 -20 -360 -13 -306
-14 -352 -20 -789 l-6 -440 148 -144 c165 -160 404 -389 503 -481 l65 -60 68
-1 c38 0 67 4 65 9 -5 15 -237 262 -503 536 -27 28 -83 85 -123 127 l-74 76
-3 344 c-6 498 -14 735 -40 1163 -4 75 -16 226 -20 261 -2 20 3 20 124 19
l126 -1 -1 -59 c-1 -33 -4 -107 -8 -165 -11 -157 -12 -172 -31 -600 -2 -41 -7
-257 -10 -479 l-7 -404 214 -211 c182 -179 484 -470 607 -584 32 -30 39 -32
110 -32 l75 0 -35 38 c-225 240 -225 240 -538 561 l-286 294 -1 111 c-3 206
-15 711 -19 781 -2 39 -7 138 -10 220 -4 83 -8 175 -10 205 -9 138 -14 209
-20 265 l-5 61 36 0 c34 0 41 -6 91 -74 116 -156 292 -317 434 -396 39 -21 72
-37 74 -34 18 18 -130 228 -241 344 -63 64 -205 184 -248 209 -15 8 -18 24
-18 80 0 131 -13 118 105 110 56 -4 122 -8 147 -10 45 -4 246 -14 390 -20 41
-2 185 -6 320 -10 l245 -7 144 -142 c132 -133 142 -145 131 -165 -6 -12 -11
-47 -11 -77 0 -88 56 -167 137 -194 51 -17 95 -18 135 -4 l36 12 79 -75 c43
-41 135 -129 204 -196 141 -137 414 -396 504 -478 33 -30 74 -68 93 -86 l33
-31 0 72 0 73 -122 128 c-68 71 -249 257 -403 413 -209 213 -279 290 -278 306
11 92 -11 170 -58 216 -53 51 -150 74 -211 51 -21 -8 -35 1 -118 81 -52 50
-128 121 -169 159 l-73 68 -117 -4 c-64 -2 -206 -7 -316 -10 -110 -3 -238 -8
-285 -10 -168 -9 -267 -15 -365 -21 -55 -4 -118 -7 -139 -8 l-39 -1 1 115 c0
63 1 121 1 128 1 10 15 12 54 8 28 -3 113 -8 187 -11 74 -3 167 -7 205 -10
222 -15 927 -33 1555 -40 l445 -6 106 -107 c153 -156 139 -152 139 -35 l0 99
-96 96 -96 95 -266 -3 c-893 -9 -1570 -28 -2124 -60 l-108 -6 -1 23 c-1 29 -1
269 0 286 1 9 24 11 89 8 48 -2 150 -6 227 -10 77 -3 176 -8 220 -10 311 -16
1270 -36 1837 -39 263 -1 267 -1 288 -24 11 -12 23 -22 25 -22 3 0 5 43 5 96
l0 96 -562 -7 c-310 -3 -642 -8 -738 -10 -371 -9 -741 -20 -945 -30 -55 -2
-161 -7 -235 -10 -74 -4 -152 -8 -172 -10 -30 -3 -38 0 -39 13 0 9 -1 88 -2
175 -2 151 -1 157 18 158 23 1 125 -2 200 -6 542 -27 1190 -43 1985 -50 437
-4 455 -3 472 15 15 16 18 37 18 122 l0 103 -49 -50 -48 -50 -309 -1 c-307 -1
-1028 -12 -1239 -19 -60 -2 -204 -7 -320 -10 -115 -4 -235 -8 -265 -10 -30 -1
-134 -5 -230 -10 -96 -4 -187 -8 -202 -10 -32 -4 -30 -16 -30 175 0 186 -3
171 35 166 17 -3 88 -7 157 -11 69 -3 166 -8 215 -11 129 -7 231 -11 825 -28
l86 -3 133 127 c131 126 133 128 159 114 58 -30 164 -8 221 46 52 51 77 156
52 223 -9 24 9 45 400 438 l409 412 0 96 0 95 -77 -74 c-42 -41 -249 -246
-461 -455 -296 -293 -388 -379 -405 -377 -78 9 -118 4 -163 -19 -87 -45 -132
-140 -109 -230 l11 -46 -108 -113 -109 -113 -51 -3 c-29 -1 -160 -5 -292 -9
-360 -11 -381 -12 -516 -19 -69 -4 -170 -9 -225 -12 -55 -2 -119 -6 -142 -9
-39 -3 -43 -1 -44 18 0 12 -1 78 -1 146 l-1 125 45 40 c45 40 152 136 237 212
57 52 77 70 200 183 298 274 494 464 932 902 293 293 390 384 401 378 9 -5 38
-11 65 -15 39 -4 62 -1 102 16 112 49 157 170 107 290 -3 9 4 26 16 41 25 29
203 222 230 250 9 10 54 59 99 111 46 51 86 95 89 98 3 3 18 20 34 38 l30 32
-35 0 c-37 0 -56 -15 -263 -204 -142 -130 -158 -145 -224 -208 l-63 -60 -51
11 c-81 18 -147 0 -202 -55 -54 -55 -76 -132 -56 -202 l9 -33 -397 -397 c-218
-219 -440 -442 -492 -498 -303 -318 -353 -371 -480 -510 -68 -74 -181 -201
-245 -274 -26 -30 -62 -68 -79 -85 l-31 -30 -185 1 -185 1 1 54 c0 30 4 99 7
154 18 285 23 395 32 745 l7 265 332 330 c297 297 518 524 752 774 43 47 107
114 141 150 l62 66 -60 3 c-32 2 -65 -1 -73 -5 -41 -24 -465 -431 -893 -858
l-402 -401 4 -49 c2 -28 7 -167 10 -310 3 -143 8 -293 10 -333 2 -39 6 -125 9
-191 4 -65 8 -143 11 -172 3 -30 7 -92 10 -139 l5 -85 -482 2 c-266 0 -491 1
-501 2 -18 1 -18 7 -2 206 2 28 7 100 10 160 l7 110 46 43 c26 24 101 94 166
155 66 62 126 111 135 111 9 -1 36 -5 61 -9 121 -19 223 65 237 196 8 79 -38
158 -123 207 -8 5 -14 133 -18 437 -6 377 -10 533 -20 730 -2 28 -4 83 -4 123
l-2 73 -42 -3 c-39 -3 -42 -5 -44 -33 -2 -42 -13 -285 -20 -440 -3 -71 -7
-298 -8 -503 l-4 -372 -39 -29 c-88 -63 -113 -135 -88 -247 7 -29 1 -38 -78
-120 -46 -49 -106 -113 -133 -143 -27 -29 -66 -72 -87 -95 l-38 -41 6 -95 c3
-52 7 -124 10 -160 2 -36 7 -105 10 -155 4 -49 7 -94 8 -99 2 -8 -392 -16
-419 -8 -7 2 -51 48 -99 103 l-87 100 6 127 c14 285 19 548 20 942 l1 415
-108 105 c-154 149 -228 219 -346 329 -58 53 -116 107 -131 121 -15 14 -64 59
-111 100 -46 41 -86 77 -89 80 -3 4 -35 32 -73 63 -49 42 -75 57 -98 57 l-30
0 34 -37z"/>
<path d="M2161 6964 c83 -87 253 -209 318 -229 23 -7 22 -5 -14 61 -20 38 -59
99 -87 136 l-50 68 -101 0 -101 0 35 -36z"/>
<path d="M2828 6958 c-10 -99 1 -427 18 -563 7 -63 33 -207 43 -240 l8 -30 11
40 c11 41 37 205 48 305 3 30 8 162 10 293 l3 237 -68 0 -69 0 -4 -42z"/>
<path d="M3687 6993 c-12 -21 9 -302 30 -413 4 -19 7 -39 8 -45 1 -5 7 -35 15
-65 l13 -55 13 31 c12 29 36 149 48 239 3 22 9 102 12 178 l7 137 -71 0 c-39
0 -73 -3 -75 -7z"/>
<path d="M5870 6979 c-163 -135 -640 -611 -849 -849 -46 -52 -96 -108 -110
-125 -40 -45 -193 -234 -227 -280 l-29 -40 40 29 c86 63 315 253 411 341 6 5
55 51 110 100 111 101 473 460 579 576 114 123 208 228 222 249 14 19 12 20
-54 20 -54 -1 -73 -5 -93 -21z"/>
<path d="M360 6835 c0 -16 168 -237 255 -335 196 -222 375 -403 584 -588 100
-89 361 -288 361 -276 0 17 -201 276 -301 389 -223 249 -469 485 -686 657
-106 85 -213 161 -213 153z"/>
<path d="M6733 6183 c-244 -243 -327 -329 -467 -483 -80 -89 -102 -114 -171
-195 -33 -38 -63 -72 -66 -75 -6 -5 -165 -205 -183 -230 -18 -23 70 43 194
146 254 212 427 372 742 685 l218 216 0 97 c0 53 -2 96 -4 96 -3 0 -121 -116
-263 -257z"/>
<path d="M0 5916 l0 -86 72 -77 c164 -175 525 -526 707 -687 107 -94 210 -185
229 -202 l34 -30 -17 -35 c-28 -52 -25 -143 5 -196 40 -73 114 -113 198 -109
206 12 274 288 95 392 -69 41 -127 41 -224 0 -12 -5 -42 23 -122 116 -130 152
-129 151 -240 273 -117 128 -547 557 -655 654 l-82 73 0 -86z"/>
<path d="M0 4468 c0 -30 6 -39 46 -67 25 -18 47 -32 48 -30 2 2 -18 33 -45 68
l-49 64 0 -35z"/>
<path d="M1983 2091 c-89 -22 -150 -95 -157 -187 -4 -50 17 -125 39 -144 11
-9 6 -18 -28 -48 -23 -20 -44 -39 -47 -42 -3 -3 -43 -39 -90 -80 -46 -41 -104
-94 -130 -118 l-45 -43 -210 6 c-437 13 -561 15 -932 19 l-383 4 0 -106 0
-106 33 31 32 31 430 6 c435 7 740 14 850 21 33 2 92 4 132 4 86 1 57 -22 308
259 60 67 111 121 114 119 96 -55 172 -58 250 -10 65 41 96 99 96 183 0 56 -4
71 -30 110 -51 74 -147 112 -232 91z"/>
<path d="M6985 2090 c3 -5 8 -10 11 -10 2 0 4 5 4 10 0 6 -5 10 -11 10 -5 0
-7 -4 -4 -10z"/>
<path d="M5194 1583 c-170 -57 -188 -298 -29 -385 58 -31 138 -34 194 -5 19 9
35 17 37 17 1 0 46 -53 100 -117 249 -298 708 -763 994 -1009 25 -22 57 -49
70 -62 18 -17 36 -22 77 -22 29 0 53 3 53 6 0 4 -150 182 -195 230 -5 6 -57
62 -115 124 -227 245 -548 556 -755 731 -22 19 -45 39 -51 44 -6 6 -41 35 -77
64 l-65 53 21 36 c31 53 30 142 -3 200 -25 45 -99 101 -134 103 -12 1 -34 2
-51 4 -16 1 -48 -4 -71 -12z"/>
<path d="M6150 1311 c16 -32 127 -177 209 -275 166 -198 317 -353 581 -594
l55 -50 3 71 c2 40 1 81 -2 92 -6 23 -284 308 -427 438 -108 98 -282 238 -371
299 -46 31 -57 35 -48 19z"/>
<path d="M5073 686 c105 -149 300 -377 490 -572 l112 -114 99 0 c92 0 98 1 85
18 -51 66 -410 409 -543 517 -27 22 -54 45 -60 50 -14 13 -196 148 -216 160
-8 5 7 -22 33 -59z"/>
<path d="M3483 570 c-125 -28 -198 -177 -144 -295 20 -45 69 -91 119 -112 24
-10 32 -19 28 -31 -3 -9 -8 -43 -12 -75 l-6 -58 69 3 c38 2 67 7 67 13 -1 6
-5 40 -8 76 l-7 66 30 13 c129 53 166 222 74 330 -52 60 -133 87 -210 70z"/>
<path d="M2396 35 c-79 -28 -66 -35 67 -35 70 0 127 2 127 5 0 12 -93 45 -123
45 -18 -1 -49 -7 -71 -15z"/>
</g>
</svg>
